<?xml version="1.0" encoding="iso-8859-1"?>
<!-- Uploaded to: SVG Repo, www.svgrepo.com, Generator: SVG Repo Mixer Tools -->
<svg fill="#000000" height="800px" width="800px" version="1.1" id="Layer_1" xmlns="http://www.w3.org/2000/svg" xmlns:xlink="http://www.w3.org/1999/xlink" 
	 viewBox="0 0 512 512" xml:space="preserve">
<g>
	<g>
		<path d="M437.333,213.333c5.888,0,10.667-4.779,10.667-10.667v-128c0-29.397-23.915-53.333-53.333-53.333H53.333
			C23.915,21.333,0,45.269,0,74.667v362.667c0,29.397,23.915,53.333,53.333,53.333h341.333c29.419,0,53.333-23.936,53.333-53.333
			v-64c0-5.888-4.779-10.667-10.667-10.667c-5.888,0-10.667,4.779-10.667,10.667v64c0,17.643-14.357,32-32,32H53.333
			c-17.643,0-32-14.357-32-32V128h405.333v74.667C426.667,208.555,431.445,213.333,437.333,213.333z M21.333,106.667v-32
			c0-17.643,14.357-32,32-32h341.333c17.643,0,32,14.357,32,32v32H21.333z"/>
	</g>
</g>
<g>
	<g>
		<circle cx="53.333" cy="74.667" r="10.667"/>
	</g>
</g>
<g>
	<g>
		<circle cx="96" cy="74.667" r="10.667"/>
	</g>
</g>
<g>
	<g>
		<circle cx="138.667" cy="74.667" r="10.667"/>
	</g>
</g>
<g>
	<g>
		<path d="M224,234.667c-5.888,0-10.667,4.779-10.667,10.667v32h-42.667v-32c0-5.888-4.779-10.667-10.667-10.667
			s-10.667,4.779-10.667,10.667v85.333c0,5.888,4.779,10.667,10.667,10.667s10.667-4.779,10.667-10.667v-32h42.667v32
			c0,5.888,4.779,10.667,10.667,10.667s10.667-4.779,10.667-10.667v-85.333C234.667,239.445,229.888,234.667,224,234.667z"/>
	</g>
</g>
<g>
	<g>
		<path d="M309.333,234.667h-42.667c-5.888,0-10.667,4.779-10.667,10.667S260.779,256,266.667,256h10.667v74.667
			c0,5.888,4.779,10.667,10.667,10.667s10.667-4.779,10.667-10.667V256h10.667c5.888,0,10.667-4.779,10.667-10.667
			S315.221,234.667,309.333,234.667z"/>
	</g>
</g>
<g>
	<g>
		<path d="M420.075,235.499c-3.968-1.685-8.555-0.768-11.627,2.304L384,262.251l-24.448-24.469
			c-3.051-3.029-7.659-3.947-11.627-2.304c-3.989,1.643-6.592,5.547-6.592,9.856v85.333c0,5.888,4.779,10.667,10.667,10.667
			c5.888,0,10.667-4.779,10.667-10.667v-59.584l13.803,13.781c4.16,4.16,10.923,4.16,15.083,0l13.781-13.781v59.584
			c0,5.888,4.779,10.667,10.667,10.667c5.888,0,10.667-4.779,10.667-10.645v-85.333
			C426.667,241.045,424.064,237.141,420.075,235.499z"/>
	</g>
</g>
<g>
	<g>
		<path d="M501.333,320h-32v-74.667c0-5.888-4.779-10.667-10.667-10.667S448,239.445,448,245.333v85.333
			c0,5.888,4.779,10.667,10.667,10.667h42.667c5.888,0,10.667-4.779,10.667-10.667S507.221,320,501.333,320z"/>
	</g>
</g>
</svg>