<svg xmlns="http://www.w3.org/2000/svg" version="1.1" xmlns:xlink="http://www.w3.org/1999/xlink" xmlns:svgjs="http://svgjs.dev/svgjs" width="128" height="128" viewBox="0 0 128 128">
    <g transform="matrix(0.8046875,0,0,0.8046875,12.358833148189284,6.962832153320306)">
        <svg viewBox="0 0 87 96" data-background-color="#c6e4ec" preserveAspectRatio="xMidYMid meet" height="141" width="128" xmlns="http://www.w3.org/2000/svg" xmlns:xlink="http://www.w3.org/1999/xlink">
            <g id="tight-bounds" transform="matrix(1,0,0,1,0.11923802046148069,0.25950000000000273)">
                <svg viewBox="0 0 85.58730173957898 95.481" height="95.481" width="85.58730173957898">
                    <g>
                        <svg viewBox="0 0 85.58730173957898 95.481" height="95.481" width="85.58730173957898">
                            <g>
                                <svg viewBox="0 0 85.58730173957898 95.481" height="95.481" width="85.58730173957898">
                                    <g id="textblocktransform">
                                        <svg viewBox="0 0 85.58730173957898 95.481" height="95.481" width="85.58730173957898" id="textblock">
                                            <g>
                                                <svg viewBox="0 0 85.58730173957898 95.481" height="95.481" width="85.58730173957898">
                                                    <g>
                                                        <svg viewBox="0 0 85.58730173957898 95.481" height="95.481" width="85.58730173957898">
                                                            <g>
                                                                <svg xmlns="http://www.w3.org/2000/svg" viewBox="8.5729517973393 1.9997555406681184 53.428467937271996 59.60467783691766" x="0" y="0" height="95.481" width="85.58730173957898" class="icon-icon-0" data-fill-palette-color="accent" id="icon-0">
                                                                    <g data-name="Natural language processing" fill="#252525" data-fill-palette-color="accent">
                                                                        <path d="M32.986 21.53A1 1 0 0 1 32.03 20.821 1 1 0 0 0 31.537 20.219C31.11 19.94 30.39 20.208 30.217 20.599 29.53 21.718 27.845 20.725 28.494 19.581 29.264 18.22 31.112 17.694 32.473 18.451 33.607 18.926 34.913 21.277 32.986 21.529ZM33.79 24.806A1 1 0 1 0 33.466 26.779 1 1 0 0 1 34.089 27.142 1.024 1.024 0 0 1 33.93 28.574C32.92 29.415 34.147 30.939 35.184 30.133 37.203 28.604 36.304 25.143 33.79 24.805ZM36.352 20.704C35.048 20.604 34.855 22.549 36.166 22.695 37.633 22.832 38.715 24.147 38.579 25.628A1 1 0 0 0 40.571 25.81C40.807 23.233 38.915 20.942 36.351 20.703ZM61.999 27.448A3.55 3.55 0 0 1 58.448 30.999C55.413 31.068 53.744 27.214 55.837 25.058L54.635 23.255 51.479 24.657C53.308 31.453 51.99 38.501 46.355 46.389L48.832 60.431A0.998 0.998 0 1 1 46.864 60.779L44.317 46.342C44.272 46.089 44.327 45.827 44.469 45.613 49.666 38.581 51.28 31.611 49.629 25.479L47.024 26.637C48.851 33.126 44.422 43.695 38.166 37.507 35.328 36.918 34.216 34.83 33.92 33.298 27.52 31.89 27.192 26.115 27.272 24.161L24.53 20.701C23.557 19.515 23.7 17.634 24.854 16.624L24.227 14.43C18.55 17.431 14.813 23.596 14.88 30.041V32.58A1 1 0 0 1 14.779 33.018L10.577 41.663 14.704 41.773A1 1 0 0 1 15.678 42.768L15.715 50.884C15.696 51.797 16.581 52.559 17.482 52.409L27.337 51.122C27.883 51.04 28.416 51.467 28.462 52.014L29.312 60.506C29.419 61.813 27.475 62.015 27.322 60.705L26.575 53.238 17.754 54.389C15.703 54.732 13.676 52.975 13.716 50.892L13.684 43.745 10.525 43.661C9.114 43.667 8.124 42.036 8.78 40.787L12.882 32.351C12.311 24.009 16.11 16.312 23.671 12.481L23.154 10.671 16.977 7.24C15.143 8.96 11.944 7.535 12.001 4.999 12.175 0.708 18.51 1.24 17.951 5.494L24.486 9.125C24.718 9.254 24.889 9.469 24.963 9.724L25.517 11.665A19.5 19.5 0 0 1 29.507 10.61L29.319 8.914C25.903 8.083 26.451 3.047 30.002 2.999 33.165 2.984 34.131 7.36 31.307 8.689L31.498 10.404C33.103 10.27 34.759 10.423 36.304 10.719L37.384 8.344C34.729 6.364 36.202 1.962 39.553 2 44.453 2.18 44.131 9.36 39.249 9.071L38.279 11.205A19.6 19.6 0 0 1 43.503 13.683L47.182 8.427A1 1 0 0 1 47.714 8.042L55.016 5.851C55.288 1.999 60.913 2.136 61.001 6 61.032 8.875 57.224 10.086 55.588 7.768L48.621 9.858 45.106 14.88A20 20 0 0 1 47.422 17.166C47.683 16.945 48.343 16.13 48.685 16.052L51.951 14.963C51.393 9.959 58.791 9.412 59.001 14.449 59.042 17.687 54.866 19.236 52.798 16.789L49.541 17.874 48.665 18.75A19.7 19.7 0 0 1 50.835 22.757L54.595 21.086A1 1 0 0 1 55.833 21.445L57.554 24.026C59.751 23.389 62.037 25.166 62.001 27.449ZM43.949 16.528L42.125 19.133A24 24 0 0 1 43.716 20.867L46.005 18.578A18 18 0 0 0 43.949 16.528M37.437 13.051L36.36 15.42C37.475 15.794 38.566 16.319 39.576 17.033 39.924 17.263 40.269 17.533 40.614 17.805L42.352 15.321A17.6 17.6 0 0 0 37.437 13.05ZM31.716 12.393L31.972 14.693C32.761 14.699 33.575 14.77 34.394 14.916L35.443 12.608C34.237 12.41 32.961 12.289 31.716 12.393M26.066 13.591L26.672 15.711C27.338 15.487 28.349 15.115 29.042 14.986 29.346 14.911 29.654 14.868 29.973 14.821L29.726 12.598C28.466 12.8 27.24 13.128 26.066 13.592ZM43.433 36.5C44.007 35.16 42.836 33.505 41.363 33.724A1 1 0 0 1 41.129 31.737 3.94 3.94 0 0 1 44.911 33.526C45.588 31.283 45.769 28.333 44.559 25.643 44.203 26.762 42.844 29.386 41.471 28.065A1 1 0 0 1 41.623 26.659C42.806 25.708 43.178 23.515 42.375 22.395 41.094 20.816 39.784 19.567 38.448 18.685 35.282 16.449 31.232 16.315 28.611 17.164L26.56 17.862C25.917 18.064 25.657 18.943 26.096 19.462L29.075 23.221C29.233 23.421 29.308 23.673 29.287 23.927 29.156 25.469 29.178 30.568 34.984 31.466A1 1 0 0 1 35.832 32.448C35.837 32.732 35.965 35.155 38.832 35.598 39.076 35.636 39.297 35.762 39.453 35.952 40.224 36.891 42.173 38.239 43.432 36.5ZM49.003 23.57A17.7 17.7 0 0 0 47.234 20.178L44.954 22.458A11 11 0 0 1 46.352 24.748z" fill="#000000" data-fill-palette-color="accent">
                                                                        </path>
                                                                    </g>
                                                                </svg>
                                                            </g>
                                                        </svg>
                                                    </g>
                                                </svg>
                                            </g>
                                        </svg>
                                    </g>
                                </svg>
                            </g>
                            <g>
                            </g>
                        </svg>
                    </g>
                    <defs>
                    </defs>
                </svg>
                <rect width="85.58730173957898" height="95.481" fill="none" stroke="none" visibility="hidden">
                </rect>
            </g>
        </svg>
    </g>
</svg>