<svg xmlns="http://www.w3.org/2000/svg" shape-rendering="geometricPrecision" text-rendering="geometricPrecision" image-rendering="optimizeQuality" fill-rule="evenodd" clip-rule="evenodd" viewBox="0 0 398 512.188"><path fill-rule="nonzero" d="M59.904 0H277.45a9.13 9.13 0 017.303 3.641l110.781 119.851a9.069 9.069 0 012.419 6.179H398v322.613c0 16.401-6.783 31.384-17.651 42.253-10.87 10.87-25.855 17.651-42.255 17.651H59.904c-16.421 0-31.422-6.756-42.294-17.628C6.763 483.714 0 468.75 0 452.284V59.906C0 43.422 6.739 28.44 17.59 17.59 28.44 6.739 43.42 0 59.904 0zM18.289 339.085h361.422V147.794c-30.513 0-71.711 4.559-96.489-16.605-12.663-10.821-19.766-26.266-21.174-45.471a9.129 9.129 0 01-.086-1.254V18.289H59.904c-11.435 0-21.839 4.686-29.384 12.231-7.545 7.544-12.231 17.949-12.231 29.386v279.179zm361.422 18.495H18.289v94.704c0 11.413 4.705 21.802 12.251 29.347 7.566 7.566 17.984 12.268 29.364 12.268h278.19c11.355 0 21.757-4.723 29.325-12.292 7.569-7.569 12.292-17.969 12.292-29.323V357.58zm-92.939-102.439v-3.761h-7.106v-21.316h33.576v46.531c-11.052 4.18-22.477 6.269-34.271 6.269-15.884 0-26.798-3.854-32.741-11.563-3.065-3.992-5.201-8.684-6.41-14.071-1.206-5.386-1.81-12.051-1.81-19.993 0-7.94.628-14.582 1.881-19.922 1.254-5.341 3.505-10.009 6.758-14.001 6.128-7.802 17.97-11.704 35.525-11.704 3.623 0 8.337.371 14.142 1.116 5.805.742 10.054 1.577 12.748 2.507l-4.18 21.316c-7.524-1.301-14.328-1.95-20.41-1.95-6.084 0-10.357.463-12.819 1.392-2.46.929-3.691 2.788-3.691 5.574v39.427h9.194c3.345 0 5.782-.348 7.316-1.045 1.532-.697 2.298-2.298 2.298-4.806zm-139.668-17.833c0-15.883 2.972-27.47 8.918-34.761 5.943-7.292 16.672-10.937 32.182-10.937 15.51 0 26.238 3.645 32.184 10.937 5.944 7.291 8.916 18.878 8.916 34.761 0 7.895-.626 14.536-1.88 19.922-1.254 5.387-3.414 10.079-6.479 14.071-3.065 3.995-7.292 6.919-12.679 8.777-5.387 1.859-12.075 2.786-20.062 2.786-7.987 0-14.675-.927-20.062-2.786-5.387-1.858-9.613-4.782-12.679-8.777-3.065-3.992-5.223-8.684-6.477-14.071-1.254-5.386-1.882-12.027-1.882-19.922zm29.955-14.489v36.222h11.564c3.807 0 6.571-.441 8.289-1.323 1.718-.883 2.577-2.903 2.577-6.06v-36.224h-11.704c-3.714 0-6.431.442-8.149 1.325-1.718.88-2.577 2.9-2.577 6.06zm-36.571 57.956H84.76v-87.076h27.864v64.785h27.864v22.291zm-20.025 155.126c-5.207 0-9.43-4.224-9.43-9.431 0-5.207 4.223-9.431 9.43-9.431H273.73c5.207 0 9.431 4.224 9.431 9.431 0 5.207-4.224 9.431-9.431 9.431H120.463zM280.25 25.577v58.847c1.041 14.194 6.017 25.376 14.832 32.907 19.07 16.285 57.587 12.174 81.231 12.174L280.25 25.577z"/></svg>