<?xml version="1.0" encoding="iso-8859-1"?>
<!-- Uploaded to: SVG Repo, www.svgrepo.com, Generator: SVG Repo Mixer Tools -->
<svg fill="#000000" height="800px" width="800px" version="1.1" id="Layer_1" xmlns="http://www.w3.org/2000/svg" xmlns:xlink="http://www.w3.org/1999/xlink" 
	 viewBox="0 0 512 512" xml:space="preserve">
<g>
	<g>
		<path d="M466.896,87.86L381.384,2.348C379.882,0.844,377.842,0,375.716,0H119.182c-13.851,0-25.119,11.268-25.119,25.119v291.273
			H67.875c-13.851,0-25.119,11.268-25.119,25.119v85.511c0,13.851,11.268,25.119,25.119,25.119h26.188v34.739
			c0,13.851,11.268,25.119,25.119,25.119h324.944c13.851,0,25.119-11.268,25.119-25.119V93.528
			C469.244,91.402,468.4,89.363,466.896,87.86z M383.733,27.37l58.141,58.141h-49.056c-5.01,0-9.086-4.076-9.086-9.086V27.37z
			 M67.875,436.109c-5.01,0-9.086-4.076-9.086-9.086v-85.511c0-5.01,4.076-9.086,9.086-9.086h230.881
			c5.01,0,9.086,4.076,9.086,9.086v85.511c0,5.01-4.076,9.086-9.086,9.086H67.875z M453.211,486.881c0,5.01-4.076,9.086-9.086,9.086
			H119.182c-5.01,0-9.086-4.076-9.086-9.086v-34.739h188.66c13.851,0,25.119-11.268,25.119-25.119v-85.511
			c0-13.851-11.268-25.119-25.119-25.119h-188.66V25.119c0-5.01,4.076-9.086,9.086-9.086h248.518v60.393
			c0,13.851,11.268,25.119,25.119,25.119h60.393V486.881z"/>
	</g>
</g>
<g>
	<g>
		<path d="M193.751,384.267l17.101-20.522c2.835-3.401,2.375-8.456-1.026-11.291c-3.401-2.835-8.456-2.375-11.291,1.026
			l-15.22,18.264l-15.219-18.263c-2.835-3.403-7.891-3.862-11.291-1.026c-3.401,2.835-3.861,7.889-1.026,11.291l17.101,20.522
			l-17.101,20.522c-2.836,3.4-2.375,8.455,1.026,11.29c1.499,1.248,3.318,1.858,5.128,1.858c2.296,0,4.577-0.982,6.163-2.885
			l15.219-18.263l15.219,18.263c1.585,1.903,3.866,2.885,6.163,2.885c1.81,0,3.63-0.609,5.127-1.858
			c3.401-2.835,3.861-7.89,1.026-11.291L193.751,384.267z"/>
	</g>
</g>
<g>
	<g>
		<path d="M136.284,350.597H84.977c-4.427,0-8.017,3.589-8.017,8.017s3.589,8.017,8.017,8.017h17.637v43.29
			c0,4.427,3.589,8.017,8.017,8.017s8.017-3.589,8.017-8.017v-43.29h17.637c4.427,0,8.017-3.589,8.017-8.017
			S140.711,350.597,136.284,350.597z"/>
	</g>
</g>
<g>
	<g>
		<path d="M281.653,350.597h-51.307c-4.427,0-8.017,3.589-8.017,8.017s3.589,8.017,8.017,8.017h17.637v43.29
			c0,4.427,3.589,8.017,8.017,8.017s8.017-3.589,8.017-8.017v-43.29h17.637c4.427,0,8.017-3.589,8.017-8.017
			S286.081,350.597,281.653,350.597z"/>
	</g>
</g>
<g>
	<g>
		<path d="M336.124,119.56l-12.093-12.093c-6.459-6.458-16.97-6.458-23.43,0l-109.09,109.09c-0.721,0.721-1.298,1.573-1.7,2.511
			l-18.14,42.326c-1.291,3.013-0.618,6.508,1.7,8.827c1.535,1.535,3.585,2.348,5.67,2.348c1.065,0,2.138-0.212,3.156-0.648
			l42.326-18.14c0.937-0.402,1.789-0.979,2.511-1.7l109.09-109.091C342.584,136.531,342.584,126.02,336.124,119.56z
			 M194.305,249.288l9.207-21.487l12.278,12.278L194.305,249.288z M227.412,229.028l-12.849-12.849l73.567-73.567l12.849,12.849
			L227.412,229.028z M324.786,131.654l-12.471,12.471l-12.849-12.849l12.471-12.471c0.208-0.208,0.547-0.208,0.757,0l12.092,12.092
			C324.995,131.105,324.995,131.445,324.786,131.654z"/>
	</g>
</g>
<g>
	<g>
		<path d="M375.716,256.534H247.449c-4.427,0-8.017,3.589-8.017,8.017s3.589,8.017,8.017,8.017h128.267
			c4.427,0,8.017-3.589,8.017-8.017S380.143,256.534,375.716,256.534z"/>
	</g>
</g>
<g>
	<g>
		<path d="M341.511,222.33h-59.858c-4.427,0-8.017,3.589-8.017,8.017s3.589,8.017,8.017,8.017h59.858
			c4.427,0,8.017-3.589,8.017-8.017S345.939,222.33,341.511,222.33z"/>
	</g>
</g>
</svg>